# Blender 3.6.2
# www.blender.org
o coupe-interior_grey
v 2.187380 0.895449 -0.581300
v 1.530681 1.198378 -0.522080
v 1.921615 0.863734 -0.662166
v 0.948464 1.210595 -0.513658
v 1.884921 0.688408 -0.630225
v 2.443045 0.497038 -0.637938
v 2.443045 0.309730 -0.637938
v 0.887387 0.309730 -0.637938
v 2.225968 0.895241 -0.450252
v 1.561579 1.211200 -0.313285
v 0.973962 1.216612 -0.274790
v 1.989288 0.867174 -0.443311
v 1.482846 1.179933 -0.556732
v 0.926929 1.173606 -0.562412
v 1.369512 0.860440 -0.677967
v 0.812487 0.860440 -0.677967
v 1.725051 0.309730 -0.637938
v 2.267262 0.898166 -0.235885
v 1.864800 0.688408 -0.107057
v 1.984331 0.867174 -0.192727
v 2.443046 0.497038 -0.143178
v 2.443046 0.309730 -0.143178
v 1.784383 0.309730 -0.074400
v 1.977224 0.869017 -0.650948
v 2.107628 0.893291 -0.446782
v 0.937696 1.199984 -0.535461
v 1.506231 1.191616 -0.540340
v 2.125796 0.897013 -0.214306
v 1.916421 0.867174 -0.681557
v 1.482846 1.177543 -0.573544
v 0.926929 1.171216 -0.579224
v 1.369512 0.867174 -0.693659
v 0.812487 0.867174 -0.693659
v 1.486984 1.203262 -0.523931
v 1.513118 1.208651 -0.308553
v 1.965431 0.981795 -0.602141
v 1.881374 0.953230 -0.640644
v 1.919412 0.967424 -0.618844
v 1.877183 0.954553 -0.659843
v 2.066943 0.938662 -0.607690
v 2.002321 0.923710 -0.624949
v 1.915073 0.908813 -0.652119
v 1.909647 0.910863 -0.671785
v 2.077535 0.886103 -0.616922
v 1.500507 1.169569 -0.560568
v 1.500315 1.167348 -0.577490
v 1.547093 1.186082 -0.532705
v 1.525063 1.181366 -0.543929
v 1.533143 1.204655 -0.464672
v 0.958037 1.216612 -0.440318
v 1.495482 1.206631 -0.458403
v 1.528376 1.202360 -0.500771
v 0.953251 1.216612 -0.474250
v 1.491233 1.206189 -0.496053
v 1.584047 1.213351 -0.127419
v 0.978396 1.216612 -0.114356
v 1.522845 1.209074 -0.127249
v 1.903805 0.931021 -0.646382
v 1.898996 0.932708 -0.665814
v 2.015507 0.959289 -0.605065
v 1.960867 0.945567 -0.621897
v 2.187380 0.895449 0.581300
v 1.530681 1.198378 0.522080
v 1.921615 0.863734 0.662166
v 0.948464 1.210595 0.513658
v 1.884921 0.688408 0.630225
v 2.443045 0.497038 0.637938
v 2.443045 0.309730 0.637938
v 0.887387 0.309730 0.637938
v 2.225968 0.895241 0.450252
v 1.561579 1.211200 0.313285
v 0.973962 1.216612 0.274790
v 1.989288 0.867174 0.443311
v 1.482846 1.179933 0.556732
v 0.926929 1.173606 0.562412
v 1.369512 0.860440 0.677967
v 0.812487 0.860440 0.677967
v 1.725051 0.309730 0.637938
v 2.278361 0.901451 0.000000
v 1.589828 1.212976 0.000000
v 1.984331 0.867174 0.000000
v 0.978396 1.216612 0.000000
v 1.864801 0.688408 0.000000
v 0.887388 0.309730 0.000000
v 1.784384 0.309730 0.000000
v 2.267262 0.898166 0.235885
v 1.864800 0.688408 0.107057
v 1.984331 0.867174 0.192727
v 2.443046 0.497038 0.143178
v 2.443046 0.309730 0.143178
v 1.784383 0.309730 0.074400
v 1.977224 0.869017 0.650948
v 2.131347 0.898656 0.000000
v 2.107628 0.893291 0.446782
v 0.937696 1.199984 0.535461
v 1.506231 1.191616 0.540340
v 2.125796 0.897013 0.214306
v 1.916421 0.867174 0.681557
v 1.482846 1.177543 0.573544
v 0.926929 1.171216 0.579224
v 1.369512 0.867174 0.693659
v 0.812487 0.867174 0.693659
v 1.486984 1.203262 0.523931
v 1.526211 1.208768 0.000000
v 1.513118 1.208651 0.308553
v 1.965431 0.981795 0.602141
v 1.881374 0.953230 0.640644
v 1.919412 0.967424 0.618844
v 1.877183 0.954553 0.659843
v 2.066943 0.938662 0.607690
v 2.002321 0.923710 0.624949
v 1.915073 0.908813 0.652119
v 1.909647 0.910863 0.671785
v 2.077535 0.886103 0.616922
v 1.500507 1.169569 0.560568
v 1.500315 1.167348 0.577490
v 1.547093 1.186082 0.532705
v 1.525063 1.181366 0.543929
v 1.533143 1.204655 0.464672
v 0.958037 1.216612 0.440318
v 1.495482 1.206631 0.458403
v 1.528376 1.202360 0.500771
v 0.953251 1.216612 0.474250
v 1.491233 1.206189 0.496053
v 1.584047 1.213351 0.127419
v 0.978396 1.216612 0.114356
v 1.522845 1.209074 0.127249
v 1.903805 0.931021 0.646382
v 1.898996 0.932708 0.665814
v 2.015507 0.959289 0.605065
v 1.960867 0.945567 0.621897
vn 0.0258 -0.9997 -0.0007
vn 0.0276 -0.9996 -0.0000
vn -0.0141 -0.9999 -0.0000
vn -0.0142 -0.9999 0.0004
vn -0.1949 0.9808 0.0079
vn -0.2029 0.9792 0.0030
vn -0.1152 0.9933 -0.0052
vn -0.1448 0.9895 0.0010
vn -0.8664 0.4991 0.0137
vn -0.8561 0.5167 -0.0056
vn -0.8865 0.4594 0.0556
vn -0.9213 0.3888 -0.0000
vn -0.8954 0.4452 -0.0071
vn -0.9782 0.2077 -0.0000
vn -0.0000 1.0000 -0.0000
vn -1.0000 -0.0000 -0.0000
vn -0.3194 -0.9476 -0.0063
vn -0.1106 0.9938 -0.0067
vn -0.2092 0.9779 -0.0014
vn -0.8391 0.5436 -0.0170
vn -0.0232 -0.9995 0.0221
vn 0.0111 -0.9999 0.0096
vn -0.0152 -0.9999 0.0050
vn -0.0175 -0.9998 0.0083
vn -0.1369 -0.7695 0.6238
vn -0.0032 -0.7986 0.6018
vn 0.0048 -0.9212 0.3891
vn -0.1428 -0.8679 0.4757
vn -0.1996 -0.3647 0.9095
vn -0.2160 -0.3722 0.9027
vn -0.1639 0.0394 0.9857
vn -0.2260 -0.1748 0.9583
vn -0.0912 -0.0444 -0.9948
vn -0.0464 0.0678 0.9966
vn -0.0255 0.0226 0.9994
vn 0.0038 -0.0147 0.9999
vn -0.0217 0.0725 0.9971
vn -0.0000 0.0725 0.9974
vn -0.8313 0.5558 -0.0000
vn -0.1101 0.9939 -0.0000
vn -0.2080 0.9781 -0.0000
vn -0.0145 0.9999 -0.0000
vn -0.0138 0.9998 -0.0118
vn -0.2559 -0.2375 0.9370
vn -0.2214 -0.2626 0.9391
vn -0.0436 -0.9448 0.3248
vn -0.0085 -0.9363 0.3510
vn -0.0281 0.9995 -0.0128
vn -0.0050 0.9414 0.3373
vn -0.0100 0.9600 0.2798
vn -0.0050 0.9411 0.3381
vn 0.0098 -0.9900 0.1408
vn -0.2622 -0.9556 0.1347
vn -0.0000 0.9190 0.3943
vn -0.4800 -0.8711 0.1037
vn -0.4796 -0.8721 0.0974
vn -0.1619 -0.8859 0.4346
vn -0.0305 -0.9989 0.0363
vn 0.0371 -0.9992 0.0137
vn 0.0652 -0.9979 -0.0020
vn 0.0678 -0.9977 -0.0000
vn -0.7840 -0.6039 0.1439
vn -0.5901 -0.8019 0.0930
vn -0.5867 -0.8045 0.0926
vn -0.1828 -0.6460 0.7411
vn -0.2024 -0.6659 0.7181
vn -0.1967 -0.5535 0.8093
vn -0.1636 -0.4935 0.8542
vn -0.2030 -0.6313 0.7485
vn -0.2169 -0.5877 0.7795
vn -0.9531 -0.1947 0.2318
vn -0.9161 -0.3432 0.2074
vn -0.9188 -0.3348 0.2090
vn -0.1512 -0.4441 0.8831
vn -0.1940 -0.4567 0.8682
vn -0.2346 -0.4843 0.8429
vn -0.2838 -0.2211 0.9331
vn -0.0477 0.9988 -0.0123
vn -0.0871 -0.9914 0.0976
vn -0.0513 -0.9954 0.0810
vn -0.0154 -0.9971 0.0746
vn 0.0258 -0.9997 0.0007
vn -0.0142 -0.9999 -0.0004
vn -0.1949 0.9808 -0.0079
vn -0.1448 0.9895 -0.0010
vn -0.1152 0.9933 0.0052
vn -0.2029 0.9792 -0.0030
vn -0.8664 0.4991 -0.0137
vn -0.8865 0.4594 -0.0556
vn -0.8561 0.5167 0.0056
vn -0.8954 0.4452 0.0071
vn -0.3194 -0.9476 0.0063
vn -0.1106 0.9938 0.0067
vn -0.2092 0.9779 0.0014
vn -0.8391 0.5436 0.0170
vn -0.0232 -0.9995 -0.0221
vn -0.0175 -0.9998 -0.0083
vn -0.0152 -0.9999 -0.0050
vn 0.0111 -0.9999 -0.0096
vn -0.1369 -0.7695 -0.6238
vn -0.1428 -0.8679 -0.4757
vn 0.0048 -0.9212 -0.3891
vn -0.0032 -0.7986 -0.6018
vn -0.1996 -0.3647 -0.9095
vn -0.2260 -0.1748 -0.9583
vn -0.1639 0.0394 -0.9857
vn -0.2160 -0.3722 -0.9027
vn -0.0912 -0.0444 0.9948
vn -0.0464 0.0678 -0.9966
vn 0.0038 -0.0147 -0.9999
vn -0.0255 0.0226 -0.9994
vn -0.0217 0.0725 -0.9971
vn -0.0000 0.0725 -0.9974
vn -0.0138 0.9998 0.0118
vn -0.2214 -0.2626 -0.9391
vn -0.2559 -0.2376 -0.9370
vn -0.0436 -0.9448 -0.3248
vn -0.0085 -0.9363 -0.3510
vn -0.0281 0.9995 0.0128
vn -0.0050 0.9414 -0.3373
vn -0.0050 0.9411 -0.3381
vn -0.0100 0.9600 -0.2798
vn -0.2622 -0.9556 -0.1347
vn 0.0098 -0.9900 -0.1407
vn -0.0000 0.9190 -0.3943
vn -0.4800 -0.8711 -0.1037
vn -0.4796 -0.8721 -0.0974
vn -0.1619 -0.8859 -0.4346
vn -0.0305 -0.9989 -0.0363
vn 0.0371 -0.9992 -0.0137
vn 0.0652 -0.9979 0.0020
vn -0.7840 -0.6039 -0.1439
vn -0.5867 -0.8045 -0.0926
vn -0.5901 -0.8019 -0.0930
vn -0.1828 -0.6460 -0.7411
vn -0.1636 -0.4935 -0.8542
vn -0.1967 -0.5535 -0.8093
vn -0.2024 -0.6659 -0.7181
vn -0.2169 -0.5877 -0.7795
vn -0.2030 -0.6313 -0.7485
vn -0.9531 -0.1947 -0.2318
vn -0.9188 -0.3348 -0.2090
vn -0.9161 -0.3432 -0.2074
vn -0.1512 -0.4441 -0.8831
vn -0.1940 -0.4567 -0.8682
vn -0.2346 -0.4843 -0.8429
vn -0.2838 -0.2211 -0.9331
vn -0.0477 0.9988 0.0123
vn -0.0871 -0.9914 -0.0976
vn -0.0513 -0.9954 -0.0810
vn -0.0154 -0.9971 -0.0746
vt 0.625000 0.044716
vt 0.625000 0.000000
vt 0.625000 0.044716
vt 0.369903 0.239921
vt 0.375000 0.145217
vt 0.375000 0.156583
vt 0.030010 0.012531
vt 0.375000 0.132659
vt 0.375000 0.000000
vt 0.375000 0.052948
vt 0.375000 0.062500
vt 0.375000 0.125000
vt 0.375000 0.077112
vt 0.375000 0.182228
vt 0.375000 0.182228
vt 0.375000 0.077112
vt 0.375000 0.070610
vt 0.375000 0.058348
vt 0.616271 0.159598
vt 0.622686 0.108034
vt 0.625000 0.102679
vt 0.625000 0.150263
vt 0.618624 0.180680
vt 0.625000 0.178866
vt 0.618445 0.180731
vt 0.345580 0.198195
vt 0.408346 0.239714
vt 0.349264 0.220447
vt 0.375000 0.250000
vt 0.000000 0.000000
vt 0.375000 0.082872
vt 0.408468 0.240477
vt 0.613466 0.182148
vt 0.375000 0.167948
vt 0.312265 0.208177
vt 0.604109 0.184779
vt 0.611889 0.182596
vt 0.604108 0.184810
vt 0.611245 0.177147
vt 0.612249 0.182494
vt 0.615571 0.160988
vt 0.622374 0.109364
vt 0.425019 0.235035
vt 0.441692 0.230356
vt 0.441692 0.231024
vt 0.425019 0.235768
vt 0.600446 0.185852
vt 0.604232 0.184552
vt 0.436883 0.227512
vt 0.441936 0.230954
vt 0.408346 0.240512
vt 0.425202 0.235716
vt 0.391231 0.212853
vt 0.102399 0.046943
vt 0.613884 0.170089
vt 0.614868 0.170873
vt 0.625000 0.164564
s 1
f 57/1/1 104/2/2 82/2/3 56/3/4
f 24/4/5 12/5/6 25/6/7 44/7/8
f 5/8/9 12/5/10 24/4/11
f 83/9/12 19/10/13 23/11/14 85/9/14
f 23/11/15 17/12/15 8/12/15 84/11/15
f 21/13/16 6/14/16 7/15/16 22/16/16
f 19/10/17 5/8/17 6/14/17 21/13/17
f 28/17/18 25/6/7 12/5/6 20/18/19
f 20/18/20 12/5/10 5/8/9 19/10/13
f 51/19/21 35/20/22 11/21/23 50/22/24
f 27/23/25 26/24/26 14/24/27 13/25/28
f 41/26/29 42/27/30 3/28/31 24/4/32
f 22/16/15 7/15/15 17/12/15 23/11/15
f 22/16/33 23/11/33 19/10/33 21/13/33
f 5/29/34 17/29/35 7/29/36 6/29/36
f 5/29/34 3/28/31 15/30/37
f 17/29/35 5/29/34 15/30/37
f 8/29/38 17/29/35 15/30/37 16/30/38
f 81/9/39 20/18/20 19/10/13 83/9/12
f 93/9/40 28/17/18 20/18/19 81/9/41
f 85/9/15 23/11/15 84/9/15
f 79/9/42 18/31/43 28/17/18 93/9/40
f 41/26/29 44/7/44 40/32/45
f 34/33/46 4/24/47 26/24/26 27/23/25
f 18/31/43 9/34/48 25/6/7 28/17/18
f 24/4/32 44/7/44 41/26/29
f 15/30/49 3/28/50 29/35/50 32/30/51
f 13/25/28 14/24/27 31/24/52 30/25/53
f 16/30/54 15/30/49 32/30/51 33/30/54
f 45/36/55 13/37/28 30/37/53 46/38/56
f 2/39/57 34/33/46 27/40/25
f 49/41/58 10/42/59 35/20/22 51/19/21
f 55/3/60 80/2/61 104/2/2 57/1/1
f 58/43/62 37/44/63 39/45/64 59/46/62
f 47/47/65 48/48/66 38/49/67 36/50/68
f 48/48/66 45/36/69 37/44/70 38/49/67
f 3/28/71 42/27/72 43/51/73 29/35/71
f 60/52/74 61/53/75 41/26/29 40/32/45
f 61/53/75 58/43/76 42/27/30 41/26/29
f 3/28/31 5/8/34 24/4/32
f 1/54/77 40/32/45 44/7/44
f 1/54/78 44/7/8 25/6/7 9/34/48
f 27/40/25 13/37/28 45/36/69 48/48/66
f 2/39/57 27/40/25 48/48/66 47/47/65
f 37/44/63 45/36/55 46/38/56 39/45/64
f 52/55/79 49/41/58 51/19/21 54/56/80
f 54/56/80 51/19/21 50/22/24 53/57/81
f 34/33/46 54/56/80 53/57/81 4/24/47
f 2/39/57 52/55/79 54/56/80 34/33/46
f 10/42/59 55/3/60 57/1/1 35/20/22
f 35/20/22 57/1/1 56/3/4 11/21/23
f 38/49/67 37/44/70 58/43/76 61/53/75
f 36/50/68 38/49/67 61/53/75 60/52/74
f 42/27/72 58/43/62 59/46/62 43/51/73
f 127/1/82 126/3/83 82/2/3 104/2/2
f 92/4/84 114/7/85 94/6/86 73/5/87
f 66/8/88 92/4/89 73/5/90
f 83/9/12 85/9/14 91/11/14 87/10/91
f 91/11/15 84/11/15 69/12/15 78/12/15
f 89/13/16 90/16/16 68/15/16 67/14/16
f 87/10/92 89/13/92 67/14/92 66/8/92
f 97/17/93 88/18/94 73/5/87 94/6/86
f 88/18/95 87/10/91 66/8/88 73/5/90
f 121/19/96 120/22/97 72/21/98 105/20/99
f 96/23/100 74/25/101 75/24/102 95/24/103
f 111/26/104 92/4/105 64/28/106 112/27/107
f 90/16/15 91/11/15 78/12/15 68/15/15
f 90/16/108 89/13/108 87/10/108 91/11/108
f 66/29/109 67/29/110 68/29/110 78/29/111
f 66/29/109 76/30/112 64/28/106
f 78/29/111 76/30/112 66/29/109
f 69/29/113 77/30/113 76/30/112 78/29/111
f 81/9/39 83/9/12 87/10/91 88/18/95
f 93/9/40 81/9/41 88/18/94 97/17/93
f 85/9/15 84/9/15 91/11/15
f 79/9/42 93/9/40 97/17/93 86/31/114
f 111/26/104 110/32/115 114/7/116
f 103/33/117 96/23/100 95/24/103 65/24/118
f 86/31/114 97/17/93 94/6/86 70/34/119
f 92/4/105 111/26/104 114/7/116
f 76/30/120 101/30/121 98/35/122 64/28/122
f 74/25/101 99/25/123 100/24/124 75/24/102
f 77/30/125 102/30/125 101/30/121 76/30/120
f 115/36/126 116/38/127 99/37/123 74/37/101
f 63/39/128 96/40/100 103/33/117
f 119/41/129 121/19/96 105/20/99 71/42/130
f 125/3/131 127/1/82 104/2/2 80/2/61
f 128/43/132 129/46/132 109/45/133 107/44/134
f 117/47/135 106/50/136 108/49/137 118/48/138
f 118/48/138 108/49/137 107/44/139 115/36/140
f 64/28/141 98/35/141 113/51/142 112/27/143
f 130/52/144 110/32/115 111/26/104 131/53/145
f 131/53/145 111/26/104 112/27/107 128/43/146
f 64/28/106 92/4/105 66/8/109
f 62/54/147 114/7/116 110/32/115
f 62/54/148 70/34/119 94/6/86 114/7/85
f 96/40/100 118/48/138 115/36/140 74/37/101
f 63/39/128 117/47/135 118/48/138 96/40/100
f 107/44/134 109/45/133 116/38/127 115/36/126
f 122/55/149 124/56/150 121/19/96 119/41/129
f 124/56/150 123/57/151 120/22/97 121/19/96
f 103/33/117 65/24/118 123/57/151 124/56/150
f 63/39/128 103/33/117 124/56/150 122/55/149
f 71/42/130 105/20/99 127/1/82 125/3/131
f 105/20/99 72/21/98 126/3/83 127/1/82
f 108/49/137 131/53/145 128/43/146 107/44/139
f 106/50/136 130/52/144 131/53/145 108/49/137
f 112/27/143 113/51/142 129/46/132 128/43/132
o coupe-interior_map
v 3.244081 0.765573 -0.690149
v 2.004922 0.870086 -0.698402
v 2.560658 0.815997 -0.762372
v 3.424812 0.742147 -0.356292
v 3.264880 0.797292 -0.361116
v 2.946782 0.804387 -0.760370
v 2.949027 0.822560 -0.679056
v 3.345609 0.757089 -0.605874
v 2.314175 0.903347 -0.361511
v 2.953080 0.855724 -0.401988
v 2.647940 0.859626 -0.664690
v 2.184354 0.889317 -0.640057
v 2.092639 0.774858 -0.762683
v 3.244081 0.765573 0.690149
v 2.004922 0.870086 0.698402
v 2.560658 0.815997 0.762372
v 3.424812 0.742147 0.356292
v 3.264880 0.797292 0.361116
v 2.946782 0.804387 0.760370
v 2.949027 0.822560 0.679056
v 3.345609 0.757089 0.605874
v 2.314175 0.903347 0.361511
v 2.953080 0.855724 0.401988
v 2.647940 0.859626 0.664690
v 2.184354 0.889317 0.640057
v 2.092639 0.774858 0.762683
v 3.452897 0.739268 0.000000
v 3.290125 0.797056 0.000000
v 2.954859 0.867337 0.000000
v 2.354890 0.909066 0.000000
v 2.100268 0.884707 -0.685021
v 2.100268 0.884707 0.671449
v 2.309926 0.804300 0.762528
v 2.309926 0.804300 -0.762528
v 3.438854 0.740708 0.178146
v 3.277502 0.797514 0.174267
v 2.953970 0.865235 0.176023
v 2.344521 0.907878 0.180755
v 3.438854 0.740708 -0.178146
v 3.277502 0.797514 -0.174267
v 2.953970 0.865235 -0.176023
v 2.344521 0.907878 -0.180755
v 2.263001 0.899225 0.500784
v 2.260687 0.899225 -0.500784
vn 0.3281 0.9441 -0.0321
vn 0.2099 0.9735 -0.0907
vn 0.2516 0.9663 -0.0543
vn 0.1793 0.9768 -0.1173
vn 0.1365 0.9696 -0.2032
vn 0.1139 0.9494 -0.2926
vn 0.3311 0.9434 -0.0205
vn 0.2665 0.9636 -0.0206
vn 0.1357 0.9905 -0.0233
vn 0.1378 0.9905 -0.0000
vn 0.2725 0.9621 -0.0000
vn 0.0416 0.9041 -0.4253
vn 0.0672 0.9703 -0.2323
vn 0.1405 0.9874 -0.0732
vn 0.0729 0.9960 -0.0521
vn 0.0703 0.9972 -0.0267
vn 0.0417 0.9098 -0.4129
vn 0.0696 0.9976 -0.0000
vn 0.0703 0.9972 0.0267
vn 0.1357 0.9905 0.0233
vn 0.3281 0.9441 0.0321
vn 0.2516 0.9663 0.0543
vn 0.2099 0.9735 0.0907
vn 0.1365 0.9696 0.2032
vn 0.1793 0.9768 0.1173
vn 0.1139 0.9494 0.2926
vn 0.3311 0.9434 0.0205
vn 0.2665 0.9636 0.0206
vn 0.0391 0.9033 0.4272
vn 0.0672 0.9703 0.2323
vn 0.0731 0.9960 0.0517
vn 0.1405 0.9874 0.0732
vn 0.0282 0.9029 0.4290
vn -0.0139 0.6956 0.7183
vn 0.0056 0.7959 0.6054
vn -0.0235 0.6397 0.7683
vn -0.0463 0.5788 -0.8141
vn -0.0251 0.6586 -0.7521
vn 0.0185 0.7976 -0.6029
vn 0.3331 0.9429 -0.0000
vn 0.0678 0.9944 0.0811
vn 0.0673 0.9944 -0.0812
vt 0.103619 0.262678
vt 0.119160 0.216457
vt 0.135028 0.262166
vt 0.138092 0.200790
vt 0.193803 0.203434
vt 0.193817 0.187966
vt 0.100735 0.295796
vt 0.132491 0.296780
vt 0.193659 0.296817
vt 0.193396 0.329349
vt 0.130027 0.329066
vt 0.265408 0.185907
vt 0.249902 0.206281
vt 0.193769 0.255020
vt 0.312708 0.262530
vt 0.306988 0.296247
vt 0.336232 0.210189
vt 0.304952 0.329850
vt 0.306683 0.363470
vt 0.193368 0.361883
vt 0.103025 0.395216
vt 0.134429 0.396009
vt 0.118153 0.441576
vt 0.192680 0.455266
vt 0.136946 0.457413
vt 0.192556 0.470734
vt 0.100438 0.362072
vt 0.132202 0.361374
vt 0.264130 0.473430
vt 0.248805 0.452919
vt 0.312091 0.397229
vt 0.193106 0.403678
vt 0.335166 0.449774
vt 0.350754 0.455826
vt 0.310725 0.476567
vt 0.368393 0.461834
vt 0.351098 0.482429
vt 0.369578 0.197606
vt 0.352006 0.202025
vt 0.312029 0.183181
vt 0.352347 0.176957
vt 0.097978 0.328923
vt 0.321095 0.423439
vt 0.322352 0.236387
s 1
f 135/58/152 139/59/153 136/60/154
f 136/60/154 132/61/155 138/62/156
f 132/61/155 137/63/157 138/62/156
f 136/60/154 139/59/153 132/61/155
f 170/64/158 135/58/152 136/60/154 171/65/159
f 171/65/159 172/66/160 160/67/161 159/68/162
f 134/69/163 142/70/164 138/62/156 137/63/157
f 172/66/160 141/71/165 140/72/166 173/73/167
f 138/62/156 141/71/165 136/60/154
f 141/71/165 142/70/164 140/72/166
f 143/74/168 142/70/164 134/69/163
f 141/71/165 138/62/156 142/70/164
f 160/67/161 161/75/169 169/76/170 168/77/171
f 148/78/172 149/79/173 152/80/174
f 149/79/173 151/81/175 145/82/176
f 145/82/176 151/81/175 150/83/177
f 149/79/173 145/82/176 152/80/174
f 166/84/178 167/85/179 149/79/173 148/78/172
f 167/85/179 159/68/162 160/67/161 168/77/171
f 147/86/180 150/83/177 151/81/175 155/87/181
f 168/77/171 169/76/170 153/88/182 154/89/183
f 151/81/175 149/79/173 154/89/183
f 155/87/181 154/89/183 153/88/182
f 156/90/184 147/86/180 155/87/181
f 154/89/183 155/87/181 151/81/175
f 147/86/180 156/90/184 163/91/185 164/92/186
f 164/92/186 163/91/185 146/93/187 157/94/187
f 133/95/188 162/96/189 165/97/190 144/98/188
f 134/69/163 165/97/190 162/96/189 143/74/168
f 149/79/173 167/85/179 168/77/171 154/89/183
f 158/99/191 159/68/162 167/85/179 166/84/178
f 160/67/161 172/66/160 173/73/167 161/75/169
f 136/60/154 141/71/165 172/66/160 171/65/159
f 158/99/191 170/64/158 171/65/159 159/68/162
f 156/90/184 155/87/181 174/100/192
f 155/87/181 153/88/182 174/100/192
f 142/70/164 175/101/193 140/72/166
f 143/74/168 175/101/193 142/70/164
o coupe-interior_black
v 2.314175 0.903347 -0.361511
v 2.261916 0.872679 -0.356617
v 2.184354 0.889317 -0.640057
v 2.314175 0.903347 0.361511
v 2.261916 0.872679 0.356617
v 2.184354 0.889317 0.640057
v 2.296980 0.881375 0.000000
v 2.354890 0.909066 0.000000
v 2.344521 0.907878 0.180755
v 2.285655 0.877027 0.178309
v 2.344521 0.907878 -0.180755
v 2.285655 0.877027 -0.178309
v 2.226188 0.880998 0.498337
v 2.263001 0.899225 0.500784
v 2.228502 0.880998 -0.498337
v 2.260687 0.899225 -0.500784
vn -0.4717 0.8594 0.1974
vn -0.4479 0.8941 -0.0000
vn -0.4653 0.8845 -0.0328
vn -0.4639 0.8853 -0.0312
vn -0.4831 0.8698 0.1007
vn -0.4838 0.8600 0.1625
vn -0.4833 0.8686 0.1092
vn -0.4508 0.8773 -0.1651
vn -0.4747 0.8746 -0.0984
vn -0.4735 0.8743 -0.1065
vn -0.4445 0.8798 -0.1686
vn -0.4653 0.8845 0.0328
vn -0.4639 0.8853 0.0312
vn -0.4271 0.8865 -0.1781
vt 0.336232 0.210189
vt 0.329233 0.236988
vt 0.322352 0.236387
vt 0.316873 0.329904
vt 0.319029 0.363023
vt 0.306683 0.363470
vt 0.304952 0.329850
vt 0.312708 0.262530
vt 0.323999 0.263650
vt 0.321095 0.423439
vt 0.312091 0.397229
vt 0.323388 0.396218
vt 0.328749 0.422960
vt 0.319330 0.296807
vt 0.306988 0.296247
vt 0.335166 0.449774
s 0
f 178/102/194 190/103/194 191/104/194
s 1
f 182/105/195 185/106/196 184/107/197 183/108/195
f 176/109/198 191/104/199 190/103/199 177/110/200
f 189/111/201 179/112/202 180/113/203 188/114/204
f 185/106/196 180/113/203 179/112/202 184/107/197
f 187/115/205 186/116/206 176/109/198 177/110/200
f 188/114/204 181/117/207 189/111/201
f 182/105/195 183/108/195 186/116/206 187/115/205
o coupe-interior_windscreen
v 2.187380 0.894710 -0.582224
v 1.530681 1.198378 -0.522080
v 2.225968 0.895241 -0.450252
v 1.561579 1.211200 -0.313285
v 2.267262 0.898166 -0.235885
v 1.965431 0.981795 -0.602141
v 2.066943 0.938662 -0.607690
v 1.547093 1.186082 -0.532705
v 1.533143 1.204655 -0.464672
v 1.528376 1.202360 -0.500771
v 1.581496 1.213351 -0.127419
v 2.015507 0.959289 -0.605065
v 1.909305 0.943504 -0.657365
v 1.486946 1.196987 -0.566325
v 1.933863 0.859015 -0.679450
v 0.939519 1.190240 -0.568628
v 0.936372 0.861892 -0.692145
v 2.187380 0.894710 0.582224
v 1.530681 1.198378 0.522080
v 2.225968 0.895241 0.450252
v 1.561579 1.211200 0.313285
v 2.278361 0.901451 0.000000
v 1.586062 1.212976 0.000000
v 2.267262 0.898166 0.235885
v 1.965431 0.981795 0.602141
v 2.066943 0.938662 0.607690
v 1.547093 1.186082 0.532705
v 1.533143 1.204655 0.464672
v 1.528376 1.202360 0.500771
v 1.581496 1.213351 0.127419
v 2.015507 0.959289 0.605065
v 1.909305 0.943504 0.657365
v 1.486946 1.196987 0.566325
v 1.933863 0.859015 0.679450
v 0.939519 1.190240 0.568628
v 0.936372 0.861892 0.692145
vn -0.4118 -0.9099 0.0504
vn -0.4123 -0.9110 -0.0000
vn -0.4118 -0.9100 0.0485
vn -0.4093 -0.9075 0.0942
vn -0.3989 -0.9109 0.1061
vn -0.3897 -0.9079 0.1542
vn -0.4042 -0.8963 0.1825
vn -0.3641 -0.9245 0.1128
vn -0.3611 -0.9261 0.1093
vn -0.4071 -0.9063 0.1133
vn -0.4073 -0.9056 0.1183
vn -0.4088 -0.8931 0.1877
vn -0.4051 -0.8500 0.3369
vn -0.0083 -0.3395 0.9406
vn 0.0689 -0.2335 0.9699
vn -0.4118 -0.9099 -0.0504
vn -0.4118 -0.9100 -0.0485
vn -0.3989 -0.9109 -0.1061
vn -0.4093 -0.9075 -0.0942
vn -0.3897 -0.9079 -0.1542
vn -0.4042 -0.8963 -0.1825
vn -0.3641 -0.9245 -0.1128
vn -0.3611 -0.9261 -0.1093
vn -0.4071 -0.9063 -0.1133
vn -0.4073 -0.9056 -0.1183
vn -0.4088 -0.8931 -0.1877
vn -0.4051 -0.8500 -0.3369
vn -0.0083 -0.3395 -0.9406
vn 0.0689 -0.2335 -0.9699
vt 0.749979 0.011149
vt 0.991018 0.004266
vt 0.984439 0.775867
vt 0.854280 0.780293
vt 0.663994 0.798659
vt 0.529870 0.046445
vt 0.367183 0.267744
vt 0.369600 0.323827
vt 0.365397 0.211124
vt 0.394730 0.080992
vt 0.508173 0.821023
vt 0.471055 0.824173
vt 0.449160 0.820166
vt 0.437631 0.799594
vt 0.355188 0.995662
vt 0.008799 0.995922
vt 0.013446 0.013661
vt 0.366621 0.456725
vt 0.105435 0.038328
s 1
f 196/118/208 213/119/209 214/120/209 202/121/210
f 202/121/210 195/122/211 194/123/212 196/118/208
f 203/124/213 194/123/212 197/125/214
f 198/126/215 194/123/212 203/124/213
f 192/127/216 194/123/212 198/126/215
f 200/128/217 194/123/212 195/122/211
f 201/129/218 194/123/212 200/128/217
f 193/130/219 194/123/212 201/129/218
f 199/131/220 194/123/212 193/130/219
f 197/125/214 194/123/212 199/131/220
s 0
f 207/132/221 208/133/221 206/134/221 205/135/221
f 204/136/222 205/135/222 206/134/222
s 1
f 215/118/223 221/121/224 214/120/209 213/119/209
f 221/121/224 215/118/223 211/123/225 212/122/226
f 222/124/227 216/125/228 211/123/225
f 217/126/229 222/124/227 211/123/225
f 209/127/230 217/126/229 211/123/225
f 219/128/231 212/122/226 211/123/225
f 220/129/232 219/128/231 211/123/225
f 210/130/233 220/129/232 211/123/225
f 218/131/234 210/130/233 211/123/225
f 216/125/228 218/131/234 211/123/225
s 0
f 226/132/235 224/135/235 225/134/235 227/133/235
f 223/136/236 225/134/236 224/135/236
