# Blender 3.6.2
# www.blender.org
o 07_conifer_03_larch
v 0.000000 -0.551526 -0.240445
v 0.000000 10.032701 -0.000001
v 0.208232 -0.551526 -0.120222
v 0.208232 -0.551526 0.120222
v 0.000000 -0.551526 0.240446
v -0.208232 -0.551526 0.120222
v -0.208232 -0.551526 -0.120222
v 2.625870 6.566824 -0.233385
v 1.737297 5.019940 0.863633
v 1.384295 4.979806 -0.938545
v 1.629299 5.927544 -0.164080
v 0.072140 5.645477 0.017284
v -0.009286 3.498543 0.010706
v 2.186340 6.006508 1.768456
v 0.603440 4.126953 1.929366
v 1.766328 4.180487 0.146443
v 1.286680 5.343145 0.993310
v -0.015182 4.973288 -0.024902
v -1.879345 5.645545 2.452771
v -1.982631 3.907096 0.772790
v -0.197062 3.993873 1.892886
v -1.065756 4.969063 1.461905
v 0.035496 4.630856 0.004840
v -1.892017 8.303026 -0.952498
v -0.963824 6.652412 -1.507076
v -1.490855 6.691015 -0.078049
v -1.018888 7.558229 -0.572942
v 0.058729 7.035418 -0.052726
v 0.589205 8.105608 -2.180685
v 1.496376 6.709722 -1.440117
v -0.388422 6.679231 -1.766574
v 0.406469 7.488466 -1.383465
v 0.046685 6.865234 -0.040980
v 0.083575 8.922704 -1.606341
v 0.758471 7.683718 -0.919556
v -0.420270 7.650022 -0.901266
v 0.016511 7.831817 0.017219
v 1.844704 7.946005 1.361242
v 0.573852 6.553031 1.421840
v 1.337570 6.592999 0.134592
v 0.976852 7.293104 0.715129
v -0.018993 6.988768 -0.012589
v -1.174458 9.483081 0.566277
v -1.019278 8.331788 -0.159258
v -0.367591 8.349415 0.756533
v 0.010508 8.489676 -0.003957
v -0.636859 10.235792 -0.136102
v -0.283949 10.295928 0.655479
v -0.003335 9.291579 -0.014802
v 0.215893 10.106399 -0.742957
v -0.603836 10.190613 -0.466584
v -0.003335 9.360040 -0.014802
v 0.303289 10.230864 0.472609
v 0.434401 10.328106 -0.381344
v -0.003335 9.291579 -0.014802
v 0.189750 9.745236 1.091620
v -0.381258 8.611623 0.749241
v 0.501370 8.585603 0.522238
v 0.004973 8.682462 -0.006353
v -0.772226 9.987622 0.552832
v 0.576571 10.077760 0.983756
v -0.008803 8.839783 0.004369
v -0.438766 9.893480 -1.001006
v -0.960542 9.991049 0.313909
v -0.008803 8.839783 0.004369
v 1.074812 9.943605 0.011654
v 0.178856 10.072463 -1.079693
v -0.008803 8.839783 0.004369
v -0.258097 9.645223 -1.162263
v 0.362376 8.385182 -0.866148
v -0.592457 8.404322 -0.525404
v 0.008701 8.622057 0.019405
v 1.355037 9.642399 0.327024
v 0.624274 8.368303 0.657431
v 0.810892 8.394000 -0.271240
v -0.010582 8.656973 -0.011217
v -2.199956 3.076451 -2.184527
v -0.196745 2.114331 -1.672809
v -1.462980 2.184353 -0.214056
v -1.229781 3.083879 -1.180033
v -0.059225 3.441149 -0.002963
v -0.646595 8.356724 1.733167
v -1.113245 7.167421 0.912721
v 0.224065 7.150821 1.224053
v -0.348020 7.810779 1.007542
v 0.027510 7.384695 -0.013092
v 1.093906 9.317023 -0.925410
v 0.999850 7.976429 -0.073868
v 0.302970 8.016658 -0.903849
v -0.008109 8.230602 -0.000133
v -2.633439 6.676259 -0.998351
v -1.727908 4.929620 -1.473951
v -2.153853 5.172700 0.476741
v -1.480383 5.932155 -0.508524
v -0.001004 5.618507 0.003193
v -1.521328 8.808532 -0.421787
v -0.695381 7.543446 -0.745092
v -0.838631 7.536278 0.218278
v -0.015700 7.975433 0.003222
v -0.290969 9.103079 1.476366
v -0.771385 7.772493 0.927228
v 0.418603 7.814323 0.912253
v -0.011188 8.087733 -0.041298
v 1.339089 8.843930 1.327656
v 0.418415 7.459951 1.577270
v 1.399580 7.269646 0.359084
v 0.830205 8.234614 0.788210
v -0.001826 7.703191 -0.015431
v -2.067458 7.676435 1.089425
v -1.798399 6.202316 -0.066952
v -0.788652 6.215300 1.316882
v -1.175505 7.026254 0.646763
v -0.015075 6.545046 -0.031101
v -1.453036 7.070132 -2.125597
v -0.234668 5.675962 -2.020607
v -1.670539 5.559161 -0.710691
v -0.863881 6.348091 -1.241347
v 0.055943 5.900784 -0.021365
v -0.366604 6.553639 2.735535
v -1.131816 5.009126 1.309401
v 0.561255 5.034772 1.408321
v -0.199988 5.809262 1.415803
v 0.006753 5.529435 -0.022350
v 2.469330 3.208860 -2.245838
v 2.007421 2.061549 -0.353781
v 0.480137 1.980897 -1.664790
v 1.317775 3.006117 -1.154100
v -0.001464 3.247348 -0.034063
v 1.015018 5.010810 2.971660
v -0.395655 3.259051 2.118093
v 1.478342 3.405513 1.240267
v 0.644207 4.334404 1.748734
v 0.030798 4.032645 0.056570
v -1.467428 2.808376 2.220985
v -1.432510 1.945331 0.518003
v -0.074549 1.935179 1.278674
v -0.812466 2.742892 1.211207
v -0.056559 2.915299 0.085736
v 2.206793 2.385448 -0.192390
v 0.953543 1.752683 0.558117
v 0.786793 1.844018 -0.677374
v 1.156160 2.428946 -0.099703
v 0.064791 2.753386 -0.000777
v 1.353668 5.560422 -2.812464
v 1.573923 3.876790 -1.478531
v -0.248053 3.875198 -1.908733
v 0.659832 4.745046 -1.529569
v 0.063540 4.216384 -0.013760
v 1.560997 7.391732 -1.920805
v 2.002133 5.575614 -0.641294
v 0.371307 5.709190 -1.799600
v 0.895097 6.580162 -1.037372
v -0.000475 6.045180 0.009728
v 1.640526 8.479168 -1.116422
v 1.652250 7.150387 -0.242581
v 0.748211 7.147758 -1.449345
v 0.923108 7.848403 -0.622912
v -0.033902 7.330869 0.023405
v -1.527028 7.176391 2.167479
v -1.706679 5.652875 0.778612
v -0.140408 5.722769 1.676732
v -0.891242 6.561336 1.327971
v -0.000040 6.245337 0.047336
v -1.097915 7.758787 -2.109659
v 0.171645 6.175903 -1.674342
v -1.199511 6.185561 -0.819288
v -0.569068 7.032829 -1.157797
v 0.032298 6.671615 0.016859
v 0.872427 7.283751 2.398517
v -0.295072 5.700537 1.743738
v 1.197172 5.740047 1.041033
v 0.485465 6.509321 1.292902
v 0.040952 6.048007 0.040487
v -0.509628 8.703815 -1.965990
v 0.458610 7.363183 -1.124083
v -0.745457 7.364198 -0.702559
v 0.015572 7.549183 0.007341
v 0.281314 7.652946 2.270322
v -0.637800 6.244278 1.495284
v 0.852464 6.294842 1.152825
v 0.155848 7.003222 1.255024
v 0.000595 6.604598 0.024631
v -0.878484 6.358585 -2.900046
v 0.522588 4.447254 -2.109701
v -1.391889 4.488209 -1.320537
v -0.548100 5.470188 -1.715945
v -0.015182 5.023003 -0.024902
v 2.862572 4.383593 0.332159
v 1.555127 2.935880 1.258585
v 1.663978 2.997380 -0.924111
v 1.506615 3.857324 0.090948
v 0.064118 3.666847 -0.011687
v -3.155199 4.878927 -0.168192
v -1.910938 3.281765 -0.981064
v -1.647942 3.247238 0.999951
v -1.737326 4.284261 -0.018128
v 0.073652 3.860668 -0.014926
v 2.394099 7.422561 0.424921
v 1.379842 5.882660 1.202015
v 1.517271 5.826438 -0.482956
v 1.506466 6.773826 0.243504
v 0.072140 6.429530 0.017284
v -1.348077 8.252250 0.840384
v -0.138323 9.385797 0.296957
v -0.008803 7.529858 0.004369
v -0.978416 10.696933 -0.837849
v 1.077243 10.596255 0.930446
v 0.013572 7.619752 0.005349
v 1.074611 6.248408 -1.617083
v 0.246420 7.667443 -0.225953
v -0.008803 5.370106 0.004369
v 0.504629 7.121977 1.885666
v -0.002328 8.541012 0.348090
v -0.008803 6.243675 0.004369
v 1.228212 6.309565 1.562039
v 1.927636 6.324680 -0.376836
v -0.008803 5.547131 0.004369
v 1.803141 5.366526 0.304904
v 0.975051 5.281593 -1.581110
v -0.008803 4.225146 0.004369
v -1.168467 7.431635 1.031527
v 0.368635 7.443408 1.494387
v -0.008803 6.837837 0.004369
v -1.311065 7.930670 -0.619569
v -1.051691 7.956428 0.964485
v -0.008870 7.065430 0.000171
v -0.928038 5.686818 -1.549438
v -1.797134 5.700537 0.107195
v -0.008803 4.994816 0.004369
v 0.303289 10.633490 0.472609
v 0.434401 10.730732 -0.381344
v -0.003335 9.694206 -0.014802
v -1.088198 9.379863 0.857947
v 1.109903 9.251843 -1.132819
v 0.058367 6.008800 0.032322
v -0.737186 7.470134 -1.183983
v 0.846157 7.359998 1.324419
v 0.030122 4.103853 0.015900
v -1.333796 6.522498 0.426034
v 1.511857 6.412362 -0.411412
v 0.030122 3.156217 0.015900
v -0.724303 10.525178 1.077994
v 0.825625 10.424500 -1.146939
v 0.013572 7.447997 0.005349
v 0.454188 6.824049 1.375551
v -0.412326 6.713913 -1.461386
v 0.030122 3.457768 0.015900
v 0.513168 4.395857 -1.466194
v 1.586324 4.254798 0.021559
v -0.045755 3.244846 -0.003501
v -1.179854 4.475136 1.305724
v -1.687211 4.455357 -0.461598
v -0.061647 3.588067 0.026566
v -1.686746 6.452977 -0.228446
v -0.878458 6.429655 1.458605
v -0.008803 5.472708 0.004369
vn -0.0000 0.0227 -0.9997
vn -0.0000 1.0000 -0.0000
vn 0.8658 0.0227 -0.4999
vn 0.8658 0.0227 0.4999
vn -0.0000 0.0227 0.9997
vn -0.8658 0.0227 0.4999
vn -0.8658 0.0227 -0.4999
vn 0.3863 -0.6708 -0.6330
vn 0.4494 -0.6321 0.6313
vn 0.0576 -0.7453 -0.6642
vn 0.2031 -0.6505 0.7318
vn 0.7184 -0.6302 -0.2945
vn -0.1880 -0.6278 0.7554
vn 0.5621 -0.6791 -0.4720
vn -0.3511 -0.6416 0.6820
vn 0.2702 -0.6773 0.6843
vn -0.7153 -0.6889 -0.1170
vn 0.4561 -0.7269 0.5134
vn -0.6347 -0.7051 -0.3161
vn -0.6792 -0.5465 0.4899
vn -0.0311 -0.4826 -0.8753
vn -0.5645 -0.6090 0.5572
vn 0.1347 -0.5454 -0.8273
vn -0.4846 -0.6344 -0.6022
vn 0.7478 -0.5969 -0.2907
vn -0.5292 -0.7065 -0.4698
vn 0.7351 -0.6684 -0.1133
vn -0.6682 -0.6044 -0.4337
vn 0.8217 -0.4882 -0.2941
vn 0.7023 -0.6530 -0.2834
vn -0.0653 -0.6567 0.7513
vn 0.5412 -0.7159 -0.4411
vn -0.2746 -0.6937 0.6659
vn -0.0447 -0.5369 0.8424
vn -0.6911 -0.5671 -0.4482
vn 0.7878 0.4788 -0.3876
vn 0.3077 0.6166 0.7247
vn -0.9288 0.3562 -0.1021
vn 0.7874 -0.5039 0.3552
vn -0.6876 -0.4604 0.5614
vn 0.2239 0.5374 -0.8131
vn 0.7769 0.5707 0.2659
vn -0.5946 0.5801 0.5567
vn -0.8551 -0.4717 -0.2153
vn 0.6798 -0.4715 -0.5617
vn 0.5220 -0.4819 -0.7037
vn 0.1249 -0.4725 0.8724
vn -0.4770 -0.7451 0.4662
vn 0.5293 -0.6808 -0.5062
vn -0.3813 -0.7082 0.5941
vn 0.6351 -0.6357 -0.4387
vn 0.4413 -0.6204 0.6484
vn -0.7709 -0.6194 0.1488
vn 0.5267 -0.6980 0.4852
vn -0.7550 -0.6558 -0.0040
vn -0.1913 -0.5167 -0.8345
vn 0.7914 -0.4750 0.3849
vn -0.5872 -0.4816 0.6506
vn -0.1767 -0.7174 -0.6738
vn -0.3725 -0.5944 0.7127
vn 0.0355 -0.8031 -0.5948
vn -0.4794 -0.4977 0.7228
vn 0.0050 -0.4473 -0.8944
vn 0.7645 -0.4617 0.4498
vn -0.8140 -0.5409 0.2118
vn 0.8146 -0.5653 -0.1299
vn -0.2534 -0.5140 0.8195
vn 0.6959 -0.6595 -0.2843
vn -0.3703 -0.5511 0.7478
vn -0.0679 -0.6234 0.7789
vn -0.6610 -0.6396 -0.3924
vn 0.1205 -0.7004 0.7035
vn -0.5616 -0.6696 -0.4861
vn -0.7510 -0.6592 -0.0379
vn 0.2097 -0.6842 -0.6985
vn -0.6090 -0.7735 0.1755
vn 0.3684 -0.7480 -0.5520
vn 0.5465 -0.6980 0.4627
vn -0.6805 -0.6717 0.2929
vn 0.6177 -0.7506 0.2348
vn -0.7126 -0.7007 0.0339
vn -0.3861 -0.7440 -0.5454
vn 0.5596 -0.6876 0.4626
vn -0.5076 -0.7419 -0.4381
vn 0.4162 -0.6545 0.6312
vn 0.7356 -0.6621 0.1432
vn -0.4640 -0.7081 0.5323
vn 0.6917 -0.7115 -0.1239
vn -0.5964 -0.7246 0.3454
vn 0.5293 -0.7523 0.3921
vn -0.6637 -0.6388 -0.3891
vn 0.6108 -0.7337 0.2978
vn -0.6154 -0.6045 -0.5059
vn -0.0923 -0.6799 -0.7274
vn 0.0323 -0.7126 0.7009
vn -0.2547 -0.6340 -0.7302
vn -0.1273 -0.6551 0.7447
vn -0.5097 -0.5743 -0.6406
vn 0.7048 -0.7062 -0.0676
vn -0.5966 -0.6553 -0.4633
vn 0.6879 -0.7256 0.0175
vn -0.2724 -0.5975 -0.7542
vn 0.8162 -0.5706 0.0911
vn -0.3675 -0.6624 -0.6528
vn 0.7047 -0.6574 0.2669
vn -0.0905 -0.5478 -0.8317
vn 0.7416 -0.5809 0.3356
vn -0.1867 -0.6132 -0.7675
vn 0.6340 -0.6509 0.4176
vn 0.2734 -0.6654 0.6946
vn -0.7319 -0.6790 -0.0569
vn 0.4681 -0.7254 0.5047
vn -0.6537 -0.7024 -0.2816
vn -0.7715 -0.6339 -0.0548
vn 0.4249 -0.5903 -0.6863
vn -0.7032 -0.6958 0.1460
vn 0.5890 -0.6370 -0.4974
vn 0.7557 -0.6305 0.1772
vn -0.4715 -0.6362 0.6107
vn 0.7197 -0.6943 0.0003
vn -0.5747 -0.6805 0.4546
vn -0.7390 -0.6485 -0.1828
vn 0.6218 -0.5925 -0.5122
vn 0.7037 -0.6348 0.3193
vn -0.5867 -0.6472 0.4867
vn 0.7059 -0.6951 0.1361
vn -0.6563 -0.6896 0.3062
vn -0.7150 -0.6402 -0.2809
vn 0.4618 -0.6429 -0.6112
vn -0.6860 -0.7272 0.0239
vn 0.6218 -0.6863 -0.3774
vn 0.3821 -0.7177 -0.5822
vn 0.1706 -0.7386 0.6522
vn 0.1460 -0.7736 -0.6166
vn 0.0538 -0.7578 0.6503
vn -0.3356 -0.6217 0.7077
vn -0.2180 -0.6932 -0.6870
vn -0.1579 -0.6697 0.7257
vn -0.1621 -0.6984 -0.6971
vn 0.5714 -0.6373 -0.5170
vn 0.2703 -0.5839 0.7655
vn 0.2736 -0.7222 -0.6353
vn 0.0208 -0.6082 0.7935
vn -0.4862 0.1029 -0.8678
vn 0.6522 0.0025 -0.7580
vn 0.8405 -0.0392 0.5404
vn -0.9592 -0.0392 0.2801
vn -0.3919 0.9102 -0.1343
vn -0.5458 0.8130 0.2030
vn 0.1130 0.9102 -0.3985
vn 0.5856 0.8033 -0.1089
vn 0.3699 0.9102 0.1865
vn -0.6720 -0.0476 -0.7390
vn 0.8457 0.0025 -0.5337
vn -0.2822 0.0025 -0.9593
vn -0.8205 0.0025 -0.5717
vn -0.9564 0.0025 0.2920
vn 0.4821 -0.7686 -0.4206
vn -0.5006 -0.8520 0.1532
vn 0.5144 0.8247 -0.2351
vt 0.088572 0.008379
vt 0.073909 4.909299
vt 0.068530 0.007828
vt 0.048488 0.008379
vt 0.028468 0.010025
vt 0.008493 0.012767
vt 0.128567 0.012768
vt 0.108591 0.010025
vt 0.682192 1.001041
vt 0.588757 0.442220
vt 0.683849 0.527379
vt 0.774047 0.486065
vt 0.682178 0.004880
vt 0.681314 0.007103
vt 0.737417 0.994065
vt 0.616845 0.981362
vt 0.688919 0.443718
vt 0.681201 0.004880
vt 0.680612 1.001041
vt 0.771117 0.483236
vt 0.687744 0.496129
vt 0.591198 0.462628
vt 0.680626 0.004880
vt 0.680657 1.000009
vt 0.769784 0.482525
vt 0.683993 0.513427
vt 0.589919 0.455061
vt 0.732936 0.995615
vt 0.580055 0.971378
vt 0.686963 0.227330
vt 0.782373 1.000266
vt 0.572370 0.967035
vt 0.681284 0.014848
s 1
f 1/1/1 2/2/2 3/3/3
f 3/3/3 2/2/2 4/4/4
f 4/4/4 2/2/2 5/5/5
f 5/5/5 2/2/2 6/6/6
f 6/7/6 2/2/2 7/8/7
f 7/8/7 2/2/2 1/1/1
s 0
f 8/9/8 9/10/8 11/11/8
f 11/11/9 10/12/9 8/9/9
f 9/10/10 12/13/10 11/11/10
f 12/13/11 10/12/11 11/11/11
f 14/9/12 15/10/12 17/11/12
f 17/11/13 16/12/13 14/9/13
f 15/10/14 18/13/14 17/11/14
f 18/13/15 16/12/15 17/11/15
f 19/9/16 20/10/16 22/11/16
f 22/11/17 21/12/17 19/9/17
f 20/10/18 23/13/18 22/11/18
f 23/13/19 21/12/19 22/11/19
f 24/9/20 25/10/20 27/11/20
f 27/11/21 26/12/21 24/9/21
f 25/10/22 28/13/22 27/11/22
f 28/13/23 26/12/23 27/11/23
f 29/9/24 30/10/24 32/11/24
f 32/11/25 31/12/25 29/9/25
f 30/10/26 33/13/26 32/11/26
f 33/13/27 31/12/27 32/11/27
f 34/9/28 35/10/28 37/14/28
f 37/14/29 36/12/29 34/9/29
f 38/9/30 39/10/30 41/11/30
f 41/11/31 40/12/31 38/9/31
f 39/10/32 42/13/32 41/11/32
f 42/13/33 40/12/33 41/11/33
f 43/9/34 44/10/34 46/14/34
f 46/14/35 45/12/35 43/9/35
f 47/15/36 48/16/36 49/17/36
f 50/15/37 51/16/37 52/17/37
f 53/15/38 54/16/38 55/17/38
f 56/9/39 57/10/39 59/14/39
f 59/14/40 58/12/40 56/9/40
f 60/15/41 61/16/41 62/17/41
f 63/15/42 64/16/42 65/17/42
f 66/15/43 67/16/43 68/17/43
f 69/9/44 70/10/44 72/14/44
f 72/14/45 71/12/45 69/9/45
f 73/9/46 74/10/46 76/14/46
f 76/14/47 75/12/47 73/9/47
f 77/9/48 78/10/48 80/11/48
f 80/11/49 79/12/49 77/9/49
f 78/10/50 81/18/50 80/11/50
f 81/18/51 79/12/51 80/11/51
f 82/9/52 83/10/52 85/11/52
f 85/11/53 84/12/53 82/9/53
f 83/10/54 86/13/54 85/11/54
f 86/13/55 84/12/55 85/11/55
f 87/9/56 88/10/56 90/14/56
f 90/14/57 89/12/57 87/9/57
f 91/9/58 92/10/58 94/11/58
f 94/11/59 93/12/59 91/9/59
f 92/10/60 95/13/60 94/11/60
f 95/13/61 93/12/61 94/11/61
f 96/9/62 97/10/62 99/14/62
f 99/14/63 98/12/63 96/9/63
f 100/9/64 101/10/64 103/14/64
f 103/14/65 102/12/65 100/9/65
f 104/19/66 105/20/66 107/21/66
f 107/21/67 106/22/67 104/19/67
f 105/20/68 108/23/68 107/21/68
f 108/23/69 106/22/69 107/21/69
f 109/19/70 110/20/70 112/21/70
f 112/21/71 111/22/71 109/19/71
f 110/20/72 113/23/72 112/21/72
f 113/23/73 111/22/73 112/21/73
f 114/24/74 115/25/74 117/26/74
f 117/26/75 116/27/75 114/24/75
f 115/25/76 118/23/76 117/26/76
f 118/23/77 116/27/77 117/26/77
f 119/9/78 120/10/78 122/11/78
f 122/11/79 121/12/79 119/9/79
f 120/10/80 123/13/80 122/11/80
f 123/13/81 121/12/81 122/11/81
f 124/9/82 125/10/82 127/11/82
f 127/11/83 126/12/83 124/9/83
f 125/10/84 128/13/84 127/11/84
f 128/13/85 126/12/85 127/11/85
f 129/9/86 130/10/86 132/11/86
f 132/11/87 131/12/87 129/9/87
f 130/10/88 133/13/88 132/11/88
f 133/13/89 131/12/89 132/11/89
f 134/9/90 135/10/90 137/11/90
f 137/11/91 136/12/91 134/9/91
f 135/10/92 138/13/92 137/11/92
f 138/13/93 136/12/93 137/11/93
f 139/9/94 140/10/94 142/11/94
f 142/11/95 141/12/95 139/9/95
f 140/10/96 143/13/96 142/11/96
f 143/13/97 141/12/97 142/11/97
f 144/9/98 145/10/98 147/11/98
f 147/11/99 146/12/99 144/9/99
f 145/10/100 148/13/100 147/11/100
f 148/13/101 146/12/101 147/11/101
f 149/9/102 150/10/102 152/11/102
f 152/11/103 151/12/103 149/9/103
f 150/10/104 153/13/104 152/11/104
f 153/13/105 151/12/105 152/11/105
f 154/19/106 155/20/106 157/21/106
f 157/21/107 156/22/107 154/19/107
f 155/20/108 158/23/108 157/21/108
f 158/23/109 156/22/109 157/21/109
f 159/9/110 160/10/110 162/11/110
f 162/11/111 161/12/111 159/9/111
f 160/10/112 163/13/112 162/11/112
f 163/13/113 161/12/113 162/11/113
f 164/9/114 165/10/114 167/11/114
f 167/11/115 166/12/115 164/9/115
f 165/10/116 168/13/116 167/11/116
f 168/13/117 166/12/117 167/11/117
f 169/9/118 170/10/118 172/11/118
f 172/11/119 171/12/119 169/9/119
f 170/10/120 173/13/120 172/11/120
f 173/13/121 171/12/121 172/11/121
f 174/9/122 175/10/122 177/14/122
f 177/14/123 176/12/123 174/9/123
f 178/9/124 179/10/124 181/11/124
f 181/11/125 180/12/125 178/9/125
f 179/10/126 182/13/126 181/11/126
f 182/13/127 180/12/127 181/11/127
f 183/9/128 184/10/128 186/11/128
f 186/11/129 185/12/129 183/9/129
f 184/10/130 187/13/130 186/11/130
f 187/13/131 185/12/131 186/11/131
f 188/9/132 189/10/132 191/11/132
f 191/11/133 190/12/133 188/9/133
f 189/10/134 192/13/134 191/11/134
f 192/13/135 190/12/135 191/11/135
f 193/9/136 194/10/136 196/11/136
f 196/11/137 195/12/137 193/9/137
f 194/10/138 197/13/138 196/11/138
f 197/13/139 195/12/139 196/11/139
f 198/19/140 199/20/140 201/21/140
f 201/21/141 200/22/141 198/19/141
f 199/20/142 202/23/142 201/21/142
f 202/23/143 200/22/143 201/21/143
f 203/28/144 204/29/144 205/30/144
f 206/31/145 207/32/145 208/33/145
f 209/28/146 210/29/146 211/30/146
f 212/28/147 213/29/147 214/30/147
f 215/28/148 216/29/148 217/30/148
f 218/28/149 219/29/149 220/30/149
f 221/28/150 222/29/150 223/30/150
f 224/28/151 225/29/151 226/30/151
f 227/28/152 228/29/152 229/30/152
f 230/15/38 231/16/38 232/17/38
f 233/31/153 234/32/153 235/33/153
f 236/31/154 237/32/154 238/33/154
f 239/31/155 240/32/155 241/33/155
f 242/31/156 243/32/156 244/33/156
f 245/31/157 246/32/157 247/33/157
f 248/28/158 249/29/158 250/30/158
f 251/28/159 252/29/159 253/30/159
f 254/28/160 255/29/160 256/30/160
