# Blender 3.6.2
# www.blender.org
o 08_conifer_04_cypress
v 0.000000 -0.549928 -0.187846
v 0.000000 10.003625 -0.000001
v 0.162679 -0.549928 -0.093923
v 0.081340 -0.549928 0.140885
v -0.162679 -0.549928 0.093923
v -0.162679 -0.549928 -0.093923
v -1.262260 1.076612 1.477028
v 3.029627 0.474961 -0.028694
v -1.365458 1.076612 -1.251752
v 1.536619 1.076611 -1.206813
v 0.026035 2.429240 0.003237
v 0.017480 0.474960 -2.856040
v 0.062414 0.474961 2.819000
v -3.012228 0.441730 -0.058004
v 1.470688 1.076611 1.424195
v -2.266781 -0.489309 2.103036
v -2.113638 -0.422437 -2.049705
v 2.243160 -0.363124 -1.928614
v 2.166376 -0.422440 1.933340
v 1.954863 1.728007 0.038956
v -1.920661 1.048967 -2.186029
v 0.027963 1.728007 1.851795
v -1.787045 1.728005 -0.295973
v 0.058383 3.047028 0.036617
v -2.070656 1.048967 1.904257
v 2.137891 1.048967 -1.824508
v 1.991506 1.028073 2.344779
v 0.176148 1.728006 -1.923056
v 3.045088 0.278162 0.384200
v -0.107793 0.261393 2.900715
v -2.929796 0.261392 -0.303183
v 0.075514 0.261392 -2.760738
v 0.827225 2.351464 -1.603060
v -2.904962 1.466052 0.762026
v 1.539677 2.351464 0.824536
v -1.077221 2.351463 1.443286
v 0.004784 3.535365 0.013318
v 0.719441 1.614975 2.805030
v -0.727977 1.614975 -2.734341
v 2.835488 1.415744 -0.680515
v -1.615552 2.351464 -0.934901
v 1.593099 0.650832 -2.383571
v 2.375507 0.650832 1.394092
v -1.577742 0.650829 2.414748
v -2.373495 0.650829 -1.211471
v 0.528002 3.041579 1.765572
v 1.289229 2.056198 -2.264154
v -1.721133 3.041579 0.547407
v -0.300896 3.041578 -1.770791
v -0.036848 4.327710 0.023785
v -2.218858 2.140397 -1.257941
v 2.125539 2.140397 1.265767
v -1.452470 2.109762 2.311746
v 1.788758 3.041579 -0.462904
v 0.507402 1.272616 2.658185
v -2.516220 1.272616 0.687470
v -0.587930 1.272613 -2.609766
v 2.343951 1.272614 -0.747738
v -1.571006 3.781284 -0.239711
v 1.394917 2.908077 2.192390
v 0.219692 3.781284 -1.488569
v 1.443819 3.781283 0.482712
v -0.022940 5.039760 -0.010250
v 2.241837 2.871571 -1.376285
v -2.069927 2.996419 1.343027
v -1.410005 2.792772 -2.262736
v -0.432382 3.708905 1.768040
v -2.419685 2.118092 -0.652195
v 0.439211 2.114059 -2.312086
v 2.375932 2.202399 0.625712
v -0.495733 1.946457 2.561656
v 1.107479 4.426954 1.081989
v -0.016220 3.262003 -2.428633
v -1.054296 4.426954 1.104685
v -0.956011 4.426953 -1.191033
v -0.026791 5.753153 0.028030
v -2.416770 3.441059 -0.030114
v 2.333291 3.441059 0.061974
v -0.144531 3.408758 2.569173
v 1.124731 4.426954 -1.081995
v 1.530202 2.526051 1.836642
v -1.663063 2.526051 1.610374
v -1.587509 2.526049 -1.776799
v 1.487814 2.526049 -1.595311
v 0.315950 4.978047 1.322599
v 1.157149 4.150299 -1.817994
v -1.285580 4.978047 0.335583
v -0.147336 4.978046 -1.308353
v -0.033784 6.330442 0.020190
v -1.817695 4.207724 -1.166939
v 1.738214 4.207724 1.173968
v -1.333333 4.161334 1.840827
v 1.333392 4.978047 -0.262008
v 0.281064 3.423893 2.134964
v -2.030837 3.423893 0.436706
v -0.354090 3.423892 -2.094213
v 1.889837 3.423892 -0.486284
v 1.238920 5.757659 -0.075885
v 0.604118 4.981085 -1.745991
v -0.552954 5.757659 1.312278
v -0.899492 5.786348 -0.944087
v -0.012232 6.886054 0.029647
v -1.948731 4.911997 0.437870
v 1.083948 4.894492 1.652501
v 1.977718 4.385778 -0.225287
v -0.783865 4.350120 2.007621
v -1.400826 4.430753 -1.463408
v -0.002394 6.496990 -1.132521
v -1.666584 5.659074 -0.879178
v 0.847638 6.496266 0.739024
v -1.099902 6.494923 0.605328
v -0.152735 7.502866 0.064273
v -0.131812 5.579471 1.999530
v 1.620647 5.672221 -0.646834
v -0.002420 5.201186 -1.863613
v 1.582202 5.164146 1.180225
v -1.582108 5.124848 0.949433
v 0.774358 6.052234 1.405095
v 0.811831 6.079261 -1.201337
v -1.611782 6.052235 0.025120
v -0.665837 6.542595 -1.263033
v 1.447634 6.556930 0.091977
v -0.057927 8.129539 0.003212
v 0.392478 7.244374 0.874857
v 0.491489 7.244376 -0.725460
v -0.787746 6.555220 1.335077
v -0.977866 7.244376 0.020842
v -0.183925 7.902547 -0.723343
v -1.149753 7.297488 -0.307416
v 0.701023 7.902547 0.311446
v -0.603273 7.902545 0.543073
v 0.009086 8.679693 0.011936
v 0.230518 7.298989 1.238150
v 0.907684 7.286405 -0.722396
v -0.310606 6.855883 -1.231542
v 1.137904 6.869773 0.429647
v -0.954806 6.855882 0.952809
v 0.288449 8.445492 0.642826
v 0.896103 8.113593 0.161511
v -0.712695 8.401321 -0.046985
v 0.427038 8.507669 -0.599659
v 0.004312 9.335995 -0.006662
v -0.451282 8.046824 -0.814828
v -0.543588 8.000391 0.818210
v 0.419972 7.385016 0.957168
v -1.061335 7.295083 -0.002828
v 0.546410 7.323648 -0.818263
v 0.665689 8.619707 -0.346589
v 0.057207 8.677038 -0.726561
v 0.046691 8.553790 0.709136
v -0.625026 8.671501 -0.386227
v 0.001549 9.820381 -0.012860
v -0.608221 8.719848 0.376055
v 0.568863 8.705418 0.330610
vn -0.0000 0.0178 -0.9998
vn 0.0011 1.0000 0.0020
vn 0.9364 0.0176 -0.3504
vn 0.4999 0.0154 0.8659
vn -0.7717 0.0176 0.6358
vn -0.8659 0.0178 -0.4999
vn 0.4869 0.7264 -0.4851
vn -0.0066 0.9999 -0.0077
vn 0.6704 0.7419 -0.0088
vn -0.0139 0.7524 -0.6585
vn -0.4759 0.7280 -0.4935
vn -0.6451 0.7639 -0.0175
vn 0.0084 0.7213 0.6926
vn -0.4500 0.7313 0.5125
vn 0.4877 0.7026 0.5182
vn -0.5625 0.5917 0.5775
vn 0.6073 0.4934 0.6227
vn 0.5647 0.5743 -0.5927
vn -0.5528 0.5895 -0.5891
vn -0.6688 0.7417 -0.0510
vn -0.0020 1.0000 0.0097
vn -0.4440 0.7398 -0.5055
vn -0.4897 0.7495 0.4455
vn -0.0602 0.7276 0.6834
vn 0.4067 0.7609 0.5056
vn 0.5155 0.7152 -0.4720
vn 0.6749 0.7379 -0.0020
vn 0.0704 0.7046 -0.7061
vn 0.7933 0.6072 0.0448
vn 0.0680 0.4913 -0.8683
vn -0.7883 0.6144 -0.0326
vn -0.0842 0.5848 0.8068
vn -0.3797 0.7348 0.5621
vn 0.0142 0.9999 0.0040
vn -0.6955 0.6977 0.1718
vn 0.1830 0.7318 0.6565
vn 0.6165 0.7207 0.3170
vn 0.6942 0.7020 -0.1593
vn -0.1899 0.6994 -0.6890
vn 0.3487 0.7304 -0.5873
vn -0.6141 0.7031 -0.3585
vn 0.4574 0.5328 -0.7120
vn -0.7809 0.4228 -0.4599
vn -0.4335 0.5398 0.7216
vn 0.7489 0.5098 0.4233
vn -0.1372 0.6911 -0.7096
vn -0.0074 1.0000 -0.0029
vn 0.4164 0.5904 -0.6915
vn -0.6815 0.6211 -0.3870
vn -0.7137 0.6770 0.1798
vn -0.4163 0.6300 0.6556
vn 0.7136 0.5761 0.3985
vn 0.2398 0.6829 0.6900
vn 0.7328 0.6564 -0.1794
vn 0.2322 0.4360 0.8695
vn 0.9144 0.3257 -0.2404
vn -0.2284 0.4472 -0.8648
vn -0.8887 0.4149 0.1950
vn 0.6988 0.6899 0.1890
vn 0.0017 0.9998 -0.0216
vn 0.4176 0.6494 0.6355
vn 0.6181 0.6743 -0.4041
vn 0.1411 0.6672 -0.7314
vn -0.3833 0.6528 -0.6533
vn -0.6610 0.6285 0.4099
vn -0.7218 0.6785 -0.1367
vn -0.1772 0.6640 0.7264
vn -0.8525 0.4840 -0.1974
vn -0.1991 0.4083 0.8909
vn 0.8370 0.5117 0.1940
vn 0.1985 0.4549 -0.8681
vn -0.4735 0.6505 -0.5938
vn -0.0079 1.0000 -0.0049
vn 0.0166 0.5359 -0.8441
vn -0.8132 0.5819 -0.0045
vn -0.5666 0.6344 0.5259
vn -0.0510 0.5935 0.8032
vn 0.8410 0.5410 0.0020
vn 0.5655 0.6432 0.5162
vn 0.5531 0.6254 -0.5505
vn 0.6417 0.4020 0.6532
vn 0.6721 0.3100 -0.6725
vn -0.6211 0.4118 -0.6668
vn -0.6925 0.3842 0.6106
vn -0.1212 0.6229 -0.7728
vn -0.0085 1.0000 -0.0012
vn 0.4475 0.5838 -0.6774
vn -0.6649 0.6153 -0.4234
vn -0.7800 0.6078 0.1491
vn -0.4695 0.6183 0.6304
vn 0.6901 0.5749 0.4396
vn 0.1876 0.6191 0.7626
vn 0.7863 0.5973 -0.1581
vn 0.1729 0.4532 0.8745
vn 0.9148 0.3553 -0.1921
vn -0.1761 0.4627 -0.8688
vn -0.8876 0.4354 0.1506
vn -0.5012 0.6495 -0.5718
vn 0.0203 0.9997 -0.0112
vn 0.2849 0.6121 -0.7377
vn -0.7831 0.6026 0.1535
vn -0.2853 0.6559 0.6989
vn 0.4730 0.6014 0.6438
vn 0.7667 0.6371 -0.0792
vn 0.8697 0.4806 -0.1121
vn -0.5903 0.4698 -0.6564
vn -0.3191 0.4613 0.8279
vn -0.6985 0.6094 0.3752
vn -0.0292 0.9996 0.0014
vn -0.7055 0.5939 -0.3866
vn -0.0571 0.6135 0.7877
vn 0.5983 0.6835 0.4183
vn 0.7106 0.6361 -0.3008
vn 0.0609 0.6571 -0.7514
vn 0.0451 0.4909 -0.8701
vn -0.7994 0.3950 0.4527
vn 0.6947 0.5403 0.4748
vn -0.3562 0.5727 -0.7383
vn -0.8824 0.4691 -0.0363
vn -0.7820 0.6225 -0.0321
vn -0.4072 0.5975 0.6908
vn -0.0136 0.9996 -0.0263
vn 0.8012 0.5978 0.0269
vn 0.3588 0.6425 0.6771
vn 0.4851 0.4416 -0.7547
vn 0.4349 0.6146 -0.6581
vn 0.4392 0.4788 0.7602
vn -0.5974 0.6223 0.5058
vn 0.0161 0.9997 -0.0210
vn -0.7944 0.5552 -0.2461
vn 0.1722 0.5670 0.8055
vn 0.7597 0.5884 0.2767
vn 0.6514 0.5456 -0.5272
vn -0.1704 0.6030 -0.7793
vn -0.1848 0.4473 -0.8751
vn -0.6545 0.4559 0.6031
vn 0.8696 0.4009 0.2883
vn 0.5080 0.4767 -0.7174
vn -0.0132 0.9999 0.0026
vn 0.8900 0.4312 0.1485
vn -0.4392 0.4209 -0.7937
vn -0.8731 0.4840 -0.0583
vn -0.5076 0.4649 0.7254
vn 0.3475 0.4987 0.7941
vn 0.3651 0.3059 0.8793
vn 0.5518 0.2049 -0.8084
vn -0.9537 0.2994 -0.0297
vn -0.7105 0.5358 -0.4563
vn 0.0093 0.9999 0.0090
vn 0.0736 0.5307 -0.8444
vn -0.6692 0.5481 0.5018
vn 0.0632 0.4959 0.8661
vn 0.7149 0.5108 0.4774
vn 0.7611 0.5264 -0.3790
vt 0.088572 0.008379
vt 0.073909 4.909299
vt 0.068530 0.007828
vt 0.048488 0.008379
vt 0.028468 0.010025
vt 0.008493 0.012767
vt 0.128567 0.012768
vt 0.108591 0.010025
vt 0.858418 0.730394
vt 0.881896 0.514844
vt 0.913467 0.938370
vt 0.779309 0.647172
vt 0.828139 0.395584
vt 0.857062 0.088523
vt 0.995650 0.437709
vt 0.918735 0.318003
vt 0.935488 0.652131
vt 0.949331 0.083485
vt 0.979756 0.767983
vt 0.833144 0.946675
vt 0.774708 0.270194
vt 0.854737 0.102474
vt 0.948168 0.091236
vt 0.912232 0.316234
vt 0.981311 0.417556
vt 0.887710 0.479190
vt 0.783184 0.675076
vt 0.874145 0.569876
vt 0.854155 0.752097
vt 0.782022 0.597566
vt 0.826317 0.389041
vt 0.914242 0.901166
vt 0.843110 0.117976
vt 0.838570 0.942024
vt 0.869495 0.488491
vt 0.852605 0.766049
vt 0.871820 0.611731
vt 0.904941 0.918218
vt 0.861356 0.474539
vt 0.780859 0.597566
vt 0.823876 0.383182
vt 0.838847 0.144330
vt 0.981699 0.403605
vt 0.891198 0.463688
vt 0.919510 0.302501
vt 0.793261 0.701429
vt 0.862100 0.096274
vt 0.848638 0.785291
vt 0.861848 0.653343
vt 0.886339 0.899615
vt 0.843141 0.431134
vt 0.784769 0.440770
vt 0.811862 0.355279
vt 0.811910 0.224237
vt 0.963484 0.254786
vt 0.904374 0.397029
vt 0.921060 0.263746
vt 0.800821 0.751514
vt 0.886128 0.128828
vt 0.938867 0.111389
vt 0.834695 0.943574
vt 0.836623 0.913957
vt 0.859910 0.667294
vt 0.780470 0.265367
vt 0.931524 0.096325
s 1
f 1/1/1 2/2/2 3/3/3
f 3/3/3 2/2/2 4/4/4
f 4/5/4 2/2/2 5/6/5
f 5/7/5 2/2/2 6/8/6
f 6/8/6 2/2/2 1/1/1
f 10/9/7 11/10/8 8/11/9
f 11/10/8 12/12/10 9/13/11
f 9/13/11 14/14/12 11/10/8
f 13/15/13 11/10/8 7/16/14
f 12/12/10 11/10/8 10/9/7
f 13/15/13 15/17/15 11/10/8
f 11/10/8 14/14/12 7/16/14
f 11/10/8 15/17/15 8/11/9
f 14/14/12 16/18/16 7/16/14
f 7/16/14 16/18/16 13/15/13
f 13/15/13 19/19/17 15/17/15
f 15/17/15 19/19/17 8/11/9
f 8/11/9 18/20/18 10/9/7
f 10/9/7 18/20/18 12/12/10
f 12/12/10 17/21/19 9/13/11
f 9/13/11 17/21/19 14/14/12
f 23/9/20 24/10/21 21/11/22
f 24/10/21 25/12/23 22/13/24
f 22/13/24 27/14/25 24/10/21
f 26/15/26 24/10/21 20/16/27
f 25/12/23 24/10/21 23/9/20
f 26/15/26 28/17/28 24/10/21
f 24/10/21 27/14/25 20/16/27
f 24/10/21 28/17/28 21/11/22
f 27/14/25 29/18/29 20/16/27
f 20/16/27 29/18/29 26/15/26
f 26/15/26 32/19/30 28/17/28
f 28/17/28 32/19/30 21/11/22
f 21/11/22 31/20/31 23/9/20
f 23/9/20 31/20/31 25/12/23
f 25/12/23 30/21/32 22/13/24
f 22/13/24 30/21/32 27/14/25
f 36/9/33 37/10/34 34/11/35
f 37/10/34 38/12/36 35/13/37
f 35/13/37 40/14/38 37/10/34
f 39/15/39 37/10/34 33/16/40
f 38/12/36 37/10/34 36/9/33
f 39/15/39 41/17/41 37/10/34
f 37/10/34 40/14/38 33/16/40
f 37/10/34 41/17/41 34/11/35
f 40/14/38 42/18/42 33/16/40
f 33/16/40 42/18/42 39/15/39
f 39/15/39 45/19/43 41/17/41
f 41/17/41 45/19/43 34/11/35
f 34/11/35 44/20/44 36/9/33
f 36/9/33 44/20/44 38/12/36
f 38/12/36 43/21/45 35/13/37
f 35/13/37 43/21/45 40/14/38
f 49/9/46 50/10/47 47/11/48
f 50/10/47 51/12/49 48/13/50
f 48/13/50 53/14/51 50/10/47
f 52/15/52 50/10/47 46/16/53
f 51/12/49 50/10/47 49/9/46
f 52/15/52 54/17/54 50/10/47
f 50/10/47 53/14/51 46/16/53
f 50/10/47 54/17/54 47/11/48
f 53/14/51 55/18/55 46/16/53
f 46/16/53 55/18/55 52/15/52
f 52/15/52 58/19/56 54/17/54
f 54/17/54 58/19/56 47/11/48
f 47/11/48 57/20/57 49/9/46
f 49/9/46 57/20/57 51/12/49
f 51/12/49 56/21/58 48/13/50
f 48/13/50 56/21/58 53/14/51
f 62/9/59 63/10/60 60/11/61
f 63/10/60 64/12/62 61/13/63
f 61/13/63 66/14/64 63/10/60
f 65/15/65 63/10/60 59/16/66
f 64/12/62 63/10/60 62/9/59
f 65/15/65 67/17/67 63/10/60
f 63/10/60 66/14/64 59/16/66
f 63/10/60 67/17/67 60/11/61
f 66/14/64 68/18/68 59/16/66
f 59/16/66 68/18/68 65/15/65
f 65/15/65 71/19/69 67/17/67
f 67/17/67 71/19/69 60/11/61
f 60/11/61 70/20/70 62/9/59
f 62/9/59 70/20/70 64/12/62
f 64/12/62 69/21/71 61/13/63
f 61/13/63 69/21/71 66/14/64
f 75/9/72 76/10/73 73/11/74
f 76/10/73 77/12/75 74/13/76
f 74/13/76 79/14/77 76/10/73
f 78/15/78 76/10/73 72/16/79
f 77/12/75 76/10/73 75/9/72
f 78/15/78 80/17/80 76/10/73
f 76/10/73 79/14/77 72/16/79
f 76/10/73 80/17/80 73/11/74
f 79/14/77 81/18/81 72/16/79
f 72/16/79 81/18/81 78/15/78
f 78/15/78 84/19/82 80/17/80
f 80/17/80 84/19/82 73/11/74
f 73/11/74 83/20/83 75/9/72
f 75/9/72 83/20/83 77/12/75
f 77/12/75 82/21/84 74/13/76
f 74/13/76 82/21/84 79/14/77
f 88/9/85 89/10/86 86/11/87
f 89/10/86 90/12/88 87/13/89
f 87/13/89 92/14/90 89/10/86
f 91/15/91 89/10/86 85/16/92
f 90/12/88 89/10/86 88/9/85
f 91/15/91 93/17/93 89/10/86
f 89/10/86 92/14/90 85/16/92
f 89/10/86 93/17/93 86/11/87
f 92/14/90 94/18/94 85/16/92
f 85/16/92 94/18/94 91/15/91
f 91/15/91 97/19/95 93/17/93
f 93/17/93 97/19/95 86/11/87
f 86/11/87 96/20/96 88/9/85
f 88/9/85 96/20/96 90/12/88
f 90/12/88 95/21/97 87/13/89
f 87/13/89 95/21/97 92/14/90
f 101/9/98 102/10/99 99/11/100
f 102/10/99 103/12/101 100/13/102
f 100/13/102 104/14/103 102/10/99
f 99/15/100 102/10/99 98/16/104
f 103/12/101 102/10/99 101/9/98
f 102/10/99 104/14/103 98/16/104
f 104/14/103 105/18/105 98/16/104
f 98/16/104 105/18/105 99/15/100
f 99/11/100 107/20/106 101/9/98
f 101/9/98 107/20/106 103/12/101
f 103/12/101 106/21/107 100/13/102
f 100/13/102 106/21/107 104/14/103
f 111/9/108 112/10/109 109/11/110
f 112/10/109 113/12/111 110/13/112
f 110/13/112 114/14/113 112/10/109
f 109/15/110 112/10/109 108/16/114
f 113/12/111 112/10/109 111/9/108
f 112/10/109 114/14/113 108/16/114
f 114/14/113 115/18/115 108/16/114
f 108/16/114 115/18/115 109/15/110
f 109/11/110 117/20/116 111/9/108
f 111/9/108 117/20/116 113/12/111
f 113/12/111 116/21/117 110/13/112
f 110/13/112 116/21/117 114/14/113
f 121/22/118 120/23/119 127/24/120
f 126/25/121 123/26/122 127/24/120
f 122/27/123 123/28/122 124/29/124
f 122/30/123 119/21/125 125/31/126
f 124/29/124 123/28/122 126/32/121
f 125/31/126 119/21/125 121/33/118
f 124/29/124 118/34/127 122/27/123
f 126/32/121 118/34/127 124/29/124
f 127/24/120 120/23/119 126/25/121
f 123/35/122 122/30/123 125/31/126
f 125/31/126 121/33/118 123/35/122
f 123/26/122 121/22/118 127/24/120
f 131/36/128 132/37/129 129/38/130
f 132/39/129 133/40/131 130/41/132
f 130/41/132 134/42/133 132/39/129
f 129/43/130 132/44/129 128/45/134
f 133/46/131 132/37/129 131/36/128
f 132/44/129 134/47/133 128/45/134
f 134/47/133 135/23/135 128/45/134
f 128/45/134 135/23/135 129/43/130
f 129/38/130 137/20/136 131/36/128
f 131/36/128 137/20/136 133/46/131
f 133/40/131 136/21/137 130/41/132
f 130/41/132 136/21/137 134/42/133
f 141/48/138 142/49/139 139/50/140
f 142/51/139 143/52/141 140/53/142
f 140/53/142 144/54/143 142/51/139
f 139/55/140 142/56/139 138/57/144
f 143/58/141 142/49/139 141/48/138
f 142/56/139 144/59/143 138/57/144
f 144/59/143 145/60/145 138/57/144
f 138/57/144 145/60/145 139/55/140
f 139/50/140 147/61/146 141/48/138
f 141/48/138 147/61/146 143/58/141
f 143/52/141 146/21/147 140/53/142
f 140/53/142 146/21/147 144/54/143
f 151/62/148 152/63/149 149/50/150
f 152/51/149 153/52/151 150/64/152
f 150/64/152 154/54/153 152/51/149
f 149/55/150 152/56/149 148/65/154
f 153/58/151 152/63/149 151/62/148
f 152/56/149 154/59/153 148/65/154
