<svg id="Layer_1" data-name="Layer 1" xmlns="http://www.w3.org/2000/svg" viewBox="0 0 1000 1000"><defs><style>.cls-1{fill:#f3f2ed;}.cls-2{fill:#343c3e;}</style></defs><title>light-tight</title><rect class="cls-1" width="1000" height="1000" rx="500"/><path class="cls-2" d="M500,55.72c-92.75,0-157.77,32.25-192.91,60.74-20.59,17.7-27.74,29.5-47.83,49-25.1,24.35-47.94,8.41-87.35,44.19C95,281.89,53.67,385.19,53.67,499.66,53.67,746.17,253.49,946,500,946S946.33,746,946.33,499.53,746.51,55.72,500,55.72Zm-.38,836.42c-216.88,0-392.73-175.85-392.73-392.73,0-156.39,94.39-264.71,119.87-264.71,17.19,0,9.91,37.78,79.2,75.68,209.85,107.44,529.16,48.95,529.16,308,0,157.65-169.44,273.75-335.5,273.75ZM854.2,381.67c-69.28-26.35-119.49-40.91-181.49-52.21C584.47,313.52,493,311.89,405,293.82c-35.52-8.41-122.13-29.25-111.33-84,9.79-45.94,89.24-101.67,205.84-101.67,169.06,0,313.15,105.56,368.51,255.42a17.54,17.54,0,0,1,.25,11c-1.89,5.64-8.29,8.66-14.06,7Z" transform="translate(0 0)"/></svg>