<?xml version="1.0" encoding="utf-8"?>
<!-- Generator: Adobe Illustrator 23.0.3, SVG Export Plug-In . SVG Version: 6.00 Build 0)  -->
<svg version="1.1" id="Layer_1" xmlns="http://www.w3.org/2000/svg" xmlns:xlink="http://www.w3.org/1999/xlink" x="0px" y="0px"
	 viewBox="0 0 3020.8 1546.3" style="enable-background:new 0 0 3020.8 1546.3;" xml:space="preserve">
<style type="text/css">
	.st0{fill:#343C3E;}
</style>
<path class="st0" d="M181.5,1346.5c-2.3-1.8-3.7-4.6-1.9-7.1l0.4-0.5c1.6-2.3,5.1-2,7.5-0.2c17.2,13.3,31.5,19,53.9,19
	c31.3,0,47.6-15.3,47.6-35.2c0-56.9-103.6-27.7-103.6-92.2c0-22.9,18.8-42.5,56.7-42.5c19.7,0,33.9,4.3,50.7,14.9
	c2.7,1.8,3.9,4.1,2.7,6.6l-0.4,0.7c-1.4,2.8-5,2.5-7.5,0.9c-14.4-9.9-28.4-13.7-46.2-13.7c-31.3,0-45.9,14.9-45.9,32.7
	c0,55.1,103.8,26.3,103.8,92.6c0,25.1-20.1,44.6-58.3,44.6C217.3,1367.2,201.1,1361.1,181.5,1346.5L181.5,1346.5z"/>
<path class="st0" d="M2724.5,1346.5c-2.3-1.8-3.7-4.6-1.9-7.1l0.4-0.5c1.6-2.3,5.2-2,7.5-0.2c17.2,13.3,31.5,19,53.9,19
	c31.3,0,47.6-15.3,47.6-35.2c0-56.9-103.6-27.7-103.6-92.2c0-22.9,18.8-42.5,56.7-42.5c19.7,0,33.9,4.3,50.7,14.9
	c2.7,1.8,3.9,4.1,2.7,6.6l-0.4,0.7c-1.4,2.8-5,2.5-7.5,0.9c-14.4-9.9-28.4-13.7-46.2-13.7c-31.3,0-45.8,14.9-45.8,32.7
	c0,55.1,103.8,26.3,103.8,92.6c0,25.1-20.1,44.6-58.3,44.6C2760.3,1367.2,2744.1,1361.1,2724.5,1346.5L2724.5,1346.5z"/>
<path class="st0" d="M477.8,1317.6v-221.8c0-2.8,2.1-4.8,4.8-4.8h0.4c2.8,0,5,2,5,4.8v220c0,29.5,6.2,41.1,27,41.1
	c4.1,0,8.2-0.5,12.8-1.8c3.7-1.1,6.8,0.4,6.8,3.2v0.4c0,3-2.1,4.6-5.2,5.5c-5,1.4-8.7,2.1-14.8,2.1
	C482.6,1366.3,477.8,1344.6,477.8,1317.6L477.8,1317.6z"/>
<path class="st0" d="M667.7,1277.4c0-48.2,37.5-89.6,89.6-89.6s89.6,41.4,89.6,89.6s-37.5,89.7-89.6,89.7S667.7,1325.8,667.7,1277.4
	z M757.3,1357.7c47.6,0,79.3-37.2,79.3-80.3s-32-80.2-79.3-80.2s-79.4,36.8-79.4,80.2S709.7,1357.7,757.3,1357.7z"/>
<path class="st0" d="M1040.4,1367.5h-0.7c-3.6,0-5.7-2.7-7.5-7.3l-62.7-164.8c-2-5,0.5-8,4.1-8h0.2c2.3,0,4.1,1.4,5.2,4.3l61,161.2
	l57.2-158.2c1.6-4.6,3.9-7.3,7.5-7.3h0.7c3,0,5.7,2.7,7.3,7.3l57.4,158.3l61-161.2c1.1-2.8,2.7-4.4,5.2-4.4h0.2
	c3.4,0,6.2,2.8,4.3,7.8l-62.9,164.9c-1.8,4.6-4.3,7.3-7.3,7.3h-0.7c-3.6,0-5.7-2.7-7.5-7.3l-57.4-156.6l-57.1,156.6
	C1046.1,1364.8,1043.4,1367.5,1040.4,1367.5L1040.4,1367.5z"/>
<path class="st0" d="M1570.9,1367.5h-0.4c-2.7,0-4.8-1.9-4.8-4.8v-170.4c0-2.8,2.1-4.8,4.8-4.8h0.4c2.8,0,5,1.9,5,4.8v35.4
	c6.2-20.3,25.8-39.8,64.2-39.8h6.4c3,0,5.7,1.6,5.7,4.8v0.2c0,3.2-2.7,4.8-5.7,4.8h-6.8c-41.2,0-63.8,27.7-63.8,64.9v100.2
	C1575.9,1365.5,1573.8,1367.5,1570.9,1367.5L1570.9,1367.5z"/>
<path class="st0" d="M1761.8,1277.4c0-48.2,37.5-89.6,89.6-89.6s89.6,41.4,89.6,89.6s-37.5,89.7-89.6,89.7
	S1761.8,1325.8,1761.8,1277.4z M1851.4,1357.7c47.6,0,79.3-37.2,79.3-80.3s-32-80.2-79.3-80.2s-79.4,36.8-79.4,80.2
	S1803.8,1357.7,1851.4,1357.7L1851.4,1357.7z"/>
<path class="st0" d="M2162.3,1187.8c35.7,0,65,19.7,78.6,50.3v-45.8c0-2.8,2.1-4.8,4.8-4.8h0.4c2.8,0,5,1.9,5,4.8v170.4
	c0,2.8-2.1,4.8-5,4.8h-0.4c-2.7,0-4.8-1.9-4.8-4.8v-46c-13.5,30.8-42.8,50.5-78.6,50.5c-47.8,0-87.4-39.3-87.4-89.7
	S2114.5,1187.8,2162.3,1187.8z M2162.3,1357.7c44.3,0,78.6-34.1,78.6-80.3s-34.3-80.2-78.6-80.2s-77.3,34.7-77.3,80.2
	S2119.7,1357.7,2162.3,1357.7z"/>
<path class="st0" d="M2487.3,1187.8c35.7,0,65,19.7,78.6,50.3v-142.3c0-2.8,2.1-4.8,4.8-4.8h0.4c2.8,0,5,2,5,4.8v266.9
	c0,2.8-2.1,4.8-5,4.8h-0.4c-2.7,0-4.8-1.9-4.8-4.8v-46c-13.5,30.8-42.8,50.5-78.6,50.5c-47.8,0-87.4-39.3-87.4-89.7
	S2439.5,1187.8,2487.3,1187.8z M2487.3,1357.7c44.3,0,78.6-34.1,78.6-80.3s-34.3-80.2-78.6-80.2s-77.3,34.7-77.3,80.2
	S2444.6,1357.7,2487.3,1357.7z"/>
<path class="st0" d="M1511,178.8c-74.1,0-126,25.8-154.1,48.5c-16.5,14.1-22.1,23.6-38.2,39.1c-20.1,19.5-38.3,6.8-69.8,35.3
	c-61.4,57.7-94.5,140.3-94.5,231.8c0,197,159.6,356.6,356.6,356.6s356.6-159.7,356.6-356.7S1707.9,178.8,1511,178.8L1511,178.8z
	 M1510.7,847.1c-173.3,0-313.8-140.5-313.8-313.8c0-124.9,75.5-211.5,95.7-211.5c13.7,0,7.9,30.2,63.3,60.5
	c167.7,85.8,422.9,39.1,422.9,246.2C1778.8,754.3,1643.4,847.1,1510.7,847.1L1510.7,847.1z M1794,439.2
	c-55.4-21.1-95.4-32.7-145-41.7c-70.5-12.7-143.7-14-213.9-28.5c-28.4-6.8-97.6-23.3-89-67.1c7.8-36.7,71.3-81.2,164.4-81.2
	c135.1,0,250.2,84.4,294.5,204.1c1,2.8,1.1,5.9,0.2,8.8C1803.7,438.1,1798.6,440.5,1794,439.2L1794,439.2z"/>
</svg>
